<?xml version="1.0" standalone="no"?>
<!DOCTYPE svg PUBLIC "-//W3C//DTD SVG 20010904//EN"
 "http://www.w3.org/TR/2001/REC-SVG-20010904/DTD/svg10.dtd">
<svg version="1.0" xmlns="http://www.w3.org/2000/svg"
 width="1536.000000pt" height="1024.000000pt" viewBox="0 0 1536.000000 1024.000000"
 preserveAspectRatio="xMidYMid meet">

<g transform="translate(0.000000,1024.000000) scale(0.100000,-0.100000)"
fill="#000000" stroke="none">
<path d="M4030 7149 c-46 -12 -1347 -318 -1600 -376 -107 -25 -201 -51 -209
-57 -16 -12 -814 -1616 -808 -1622 2 -2 141 15 308 39 167 24 305 43 307 41 3
-2 -58 -139 -178 -394 -100 -212 -204 -436 -275 -590 -29 -63 -103 -220 -164
-349 -61 -129 -110 -236 -108 -238 2 -1 106 88 233 199 265 232 471 411 559
485 l62 52 134 15 c346 40 885 82 1464 116 144 8 878 40 925 40 9 0 10 -33 5
-127 l-7 -128 63 -51 c35 -28 89 -69 120 -92 l56 -42 2404 0 2404 0 145 97
c80 53 148 100 151 106 4 5 24 60 44 121 21 61 41 114 44 118 3 3 107 2 231
-2 124 -5 365 -14 535 -20 501 -17 1223 -55 1233 -64 2 -3 -9 -22 -25 -43 -49
-63 -47 -63 44 -12 67 37 98 49 131 49 23 0 42 -4 42 -8 0 -5 -28 -46 -62 -93
-94 -129 -158 -219 -158 -223 0 -5 113 71 200 134 30 22 61 40 68 40 25 0 23
-29 -4 -76 -31 -52 -33 -53 70 10 86 52 119 47 78 -12 -38 -55 -34 -55 49 3
119 83 139 98 139 104 0 3 -26 4 -57 2 -66 -4 -133 13 -133 34 0 8 14 30 31
49 l30 35 97 -35 c128 -46 241 -65 388 -65 461 -1 872 264 1080 694 70 145 95
260 101 457 l5 165 76 78 c42 42 74 77 72 77 -3 0 -39 -11 -80 -24 -126 -40
-133 -13 -25 102 41 44 75 82 75 85 0 3 -42 -9 -94 -26 -79 -26 -97 -29 -110
-18 -9 8 -16 20 -16 27 0 8 64 78 143 155 78 78 135 139 127 136 -8 -3 -86
-35 -174 -71 -87 -36 -165 -66 -172 -66 -22 0 -29 30 -13 54 21 33 137 256
132 256 -2 0 -45 -28 -95 -62 -134 -93 -147 -101 -163 -94 -30 11 -13 48 101
216 63 95 109 168 102 164 -7 -4 -67 -48 -133 -97 -193 -144 -236 -165 -269
-132 -22 22 -13 34 67 95 37 28 67 55 67 60 0 16 -271 12 -318 -4 -22 -8 -77
-40 -123 -71 -114 -78 -135 -73 -113 32 9 46 -18 55 -136 42 -296 -30 -562
-156 -776 -365 -342 -335 -458 -837 -280 -1218 18 -39 54 -102 80 -141 l47
-70 -51 50 c-71 69 -162 207 -199 303 -63 164 -68 355 -12 519 17 51 41 114
55 140 43 86 142 228 205 295 33 36 61 72 61 81 0 37 -19 39 -317 29 -158 -5
-308 -7 -333 -5 -25 2 -335 10 -690 18 -2332 54 -5053 40 -6760 -35 -124 -5
-340 -15 -480 -21 -140 -6 -301 -14 -357 -18 -57 -3 -103 -4 -103 -1 0 3 52
68 116 145 244 294 293 353 375 454 87 108 199 244 307 375 66 79 66 84 -8 65z
m-387 -271 c-44 -57 -205 -254 -283 -344 -151 -175 -458 -545 -500 -601 -13
-18 -22 -35 -19 -37 2 -2 76 9 164 25 161 30 495 72 503 64 3 -2 -261 -271
-585 -597 -513 -516 -813 -821 -1116 -1133 l-78 -80 291 580 c160 319 300 600
310 624 l20 44 -32 -6 c-18 -3 -168 -36 -333 -72 -165 -36 -305 -65 -312 -65
-6 0 8 37 32 83 67 131 586 1158 608 1204 17 34 26 42 56 48 20 3 115 24 211
45 96 22 360 80 585 129 226 49 419 92 430 94 41 10 58 8 48 -5z m9944 -400
c-14 -18 -34 -52 -46 -75 -15 -30 -28 -43 -42 -43 -31 0 -59 19 -59 40 0 27
76 88 124 99 23 5 42 9 44 10 2 1 -8 -14 -21 -31z m-447 3 c0 -5 -11 -33 -25
-64 -39 -83 -34 -88 110 -102 96 -9 184 -34 275 -77 68 -33 100 -56 165 -122
161 -163 226 -369 191 -602 -60 -402 -354 -728 -761 -846 -116 -33 -327 -33
-435 1 -215 67 -365 196 -461 396 -56 115 -72 203 -66 350 7 143 34 242 108
385 89 173 243 335 423 443 39 23 133 67 210 98 77 30 142 61 144 69 6 18
-135 7 -198 -15 -65 -23 -36 -1 40 30 116 47 280 80 280 56z m820 -549 c51
-87 94 -205 116 -318 22 -117 15 -297 -16 -404 -111 -393 -484 -686 -935 -735
-37 -4 -21 3 56 24 221 61 411 166 562 310 98 93 152 169 211 292 93 192 115
385 71 599 -17 83 -60 203 -91 258 -14 23 -23 42 -20 42 3 0 23 -31 46 -68z
m-6623 27 c43 -6 81 -12 84 -15 10 -6 -48 -199 -59 -197 -6 2 -64 8 -129 14
-188 17 -271 -1 -298 -64 -27 -66 -107 -388 -101 -410 3 -13 17 -29 31 -35 28
-13 164 -16 181 -4 10 7 44 115 44 140 0 8 -21 12 -61 12 l-61 0 7 43 c4 23
15 62 24 87 l17 45 172 3 c95 1 172 -1 172 -5 0 -7 -17 -70 -106 -393 -15 -52
-31 -98 -37 -102 -27 -17 -188 -33 -332 -33 -151 0 -163 1 -209 25 -102 51
-116 115 -66 310 53 211 100 372 121 412 44 86 106 134 212 163 64 17 284 19
394 4z m406 -149 c10 -85 20 -170 23 -188 5 -32 10 -25 132 158 l126 191 123
-2 c74 -1 123 -5 123 -11 0 -6 -29 -47 -63 -92 -35 -44 -133 -173 -218 -285
l-154 -205 -45 -160 -46 -161 -117 -3 c-100 -2 -117 0 -117 13 0 8 18 77 40
152 22 76 40 150 40 164 0 14 -22 134 -49 265 -71 349 -69 312 -24 317 21 2
76 4 123 3 l85 -1 18 -155z m1382 134 c132 -32 162 -119 110 -314 -68 -252
-150 -310 -439 -310 l-123 0 -38 -135 -37 -135 -119 0 c-82 0 -119 4 -119 11
0 6 13 57 29 113 49 167 141 493 177 626 19 69 39 135 44 148 l10 24 223 -7
c138 -4 245 -12 282 -21z m-2607 -8 c68 -29 92 -66 92 -139 0 -77 -41 -235
-79 -302 -25 -44 -71 -88 -127 -121 -18 -11 -18 -16 19 -156 20 -80 37 -153
37 -162 0 -14 -16 -16 -124 -16 l-124 0 -26 108 c-14 59 -28 124 -32 145 -6
36 -7 37 -50 37 -24 0 -47 0 -51 1 -4 0 -24 -64 -45 -142 -20 -77 -38 -142
-40 -144 -2 -1 -54 -5 -115 -9 -89 -5 -113 -4 -113 7 0 7 32 132 71 277 39
146 91 342 116 435 25 94 49 178 55 189 9 17 24 18 251 14 204 -4 249 -7 285
-22z m3142 15 c0 -5 -11 -46 -24 -92 -76 -263 -165 -602 -160 -610 3 -5 72 -9
155 -9 82 0 149 -3 149 -6 0 -4 -14 -51 -31 -106 l-30 -99 -272 7 c-150 4
-274 8 -276 10 -2 2 15 70 38 151 23 82 53 186 66 233 60 215 98 352 122 438
l26 92 119 0 c65 0 118 -4 118 -9z m-3780 -13 c0 -7 -11 -49 -24 -93 l-23 -80
-59 -6 c-32 -4 -114 -7 -181 -8 l-122 -1 -15 -52 c-8 -29 -18 -66 -22 -81 l-6
-28 158 1 c183 2 169 14 131 -111 l-23 -74 -159 -5 -160 -5 -22 -82 -21 -83
182 0 183 0 -25 -92 c-13 -51 -27 -96 -30 -99 -4 -4 -141 -9 -306 -13 -271 -6
-298 -5 -292 10 3 8 42 151 87 317 93 348 136 509 150 554 10 31 12 32 72 36
34 2 167 4 295 5 180 2 232 -1 232 -10z m4390 0 c0 -13 -15 -68 -115 -428 -63
-228 -65 -259 -15 -285 44 -23 121 -19 160 8 63 43 57 25 206 567 19 69 39
129 43 133 9 9 216 6 225 -4 10 -10 -165 -633 -196 -696 -40 -82 -124 -162
-203 -194 -53 -21 -76 -23 -205 -24 -130 0 -150 2 -195 23 -65 30 -91 55 -111
108 -27 70 -15 152 64 429 39 138 78 278 88 313 l17 62 118 0 c89 0 119 -3
119 -12z m-5104 -15 c-3 -10 -32 -121 -66 -248 -33 -126 -86 -325 -117 -441
l-56 -211 -115 -7 c-83 -4 -118 -3 -123 5 -10 16 -98 380 -114 471 -7 40 -15
66 -18 58 -3 -8 -24 -87 -46 -175 -88 -346 -93 -363 -115 -369 -12 -3 -62 -6
-113 -6 -89 0 -91 0 -86 23 3 12 45 168 93 347 49 179 101 372 116 430 15 58
30 108 33 111 3 4 58 10 122 13 116 7 116 7 123 -16 13 -46 85 -365 96 -423 6
-33 13 -71 16 -85 4 -17 23 43 59 185 29 116 62 243 74 283 l22 72 110 0 c100
0 110 -2 105 -17z m6273 -9 c58 -8 107 -17 109 -19 4 -4 -46 -186 -53 -193 -3
-3 -35 0 -73 7 -37 7 -116 15 -177 18 -103 5 -112 4 -137 -17 -32 -25 -37 -69
-12 -95 9 -9 57 -36 107 -61 128 -65 165 -91 194 -141 23 -39 25 -52 21 -116
-11 -158 -108 -263 -278 -298 -63 -13 -328 -6 -400 11 -25 5 -55 12 -67 15
-20 5 -21 8 -11 42 30 114 50 173 58 168 20 -12 174 -36 270 -42 102 -6 107
-5 134 19 31 26 38 67 16 93 -7 8 -63 40 -126 71 -137 68 -189 117 -199 188
-24 160 84 318 242 355 62 15 268 12 382 -5z m-7109 -11 c0 -10 -11 -54 -23
-98 l-23 -80 -185 -9 -185 -8 -19 -67 c-10 -36 -20 -72 -23 -80 -4 -11 22 -12
161 -6 92 4 167 5 167 3 0 -3 -36 -136 -46 -170 -7 -23 -32 -27 -192 -29
l-142 -1 -16 -56 c-8 -32 -20 -70 -25 -86 l-9 -29 185 5 c102 3 187 3 189 -1
2 -3 -8 -47 -22 -98 l-26 -92 -70 -5 c-102 -8 -540 -23 -548 -19 -4 2 -1 25 7
51 7 26 34 121 59 212 140 511 178 646 185 653 4 4 109 12 232 16 377 13 369
13 369 -6z m4660 -1063 c884 -20 1525 -42 2075 -70 405 -21 892 -50 943 -55
48 -5 218 -72 208 -82 -2 -2 -93 3 -202 11 -110 8 -293 20 -409 26 -115 6
-286 15 -380 20 -1561 90 -4619 106 -6395 35 -940 -38 -1590 -86 -2166 -160
-206 -27 -210 -27 -203 -21 6 6 582 102 729 121 648 85 1670 147 2870 174 520
12 2436 12 2930 1z m-3016 -274 c18 -7 43 -26 55 -42 19 -24 22 -38 19 -82 -8
-96 -88 -163 -204 -170 -108 -7 -171 30 -181 106 -7 50 25 122 67 152 67 48
177 64 244 36z m371 -71 c32 -47 61 -85 65 -85 3 0 11 21 18 48 36 136 28 122
79 122 38 0 45 -3 41 -17 -3 -10 -20 -78 -39 -150 l-34 -133 -45 0 -45 0 -53
80 c-28 44 -56 80 -61 80 -4 0 -17 -35 -27 -77 l-19 -78 -49 -3 c-42 -3 -47
-1 -42 15 3 10 17 67 31 127 39 158 38 156 83 156 38 0 41 -3 97 -85z m631 69
c-3 -9 -6 -22 -6 -29 0 -10 -18 -15 -62 -17 l-62 -3 -29 -117 -29 -118 -48 0
-48 0 29 113 c16 61 29 113 29 113 0 1 -23 4 -50 6 -60 6 -64 9 -56 43 l6 25
166 0 c147 0 165 -2 160 -16z m390 0 c-3 -9 -6 -22 -6 -29 0 -11 -23 -15 -102
-17 -98 -3 -103 -4 -106 -25 -3 -22 -1 -23 76 -23 43 0 81 -3 84 -6 3 -3 3
-17 -1 -32 -7 -26 -10 -27 -97 -32 -83 -5 -89 -7 -92 -27 -3 -22 -1 -23 80
-23 97 0 112 -7 102 -43 l-6 -27 -148 0 -148 0 34 133 c19 72 37 140 40 150 5
15 21 17 151 17 128 0 144 -2 139 -16z m271 -69 l58 -86 22 68 c12 38 22 76
22 86 1 14 10 17 52 17 37 0 50 -4 47 -12 -3 -7 -20 -69 -38 -138 -18 -69 -34
-131 -36 -137 -2 -8 -21 -13 -47 -13 -43 0 -45 2 -80 58 -20 31 -47 70 -60 86
l-23 29 -23 -87 -23 -86 -44 0 c-25 0 -44 5 -44 11 0 9 32 140 61 252 9 36 11
37 54 37 l44 0 58 -85z m623 78 c0 -5 -3 -18 -6 -30 -6 -21 -12 -23 -108 -25
-94 -3 -101 -4 -104 -24 -3 -20 2 -22 77 -26 45 -3 83 -7 85 -9 2 -2 2 -16 -1
-31 -5 -27 -6 -27 -97 -30 -86 -3 -91 -4 -94 -25 -4 -24 3 -25 161 -27 28 -1
31 -6 21 -43 -6 -23 -9 -23 -154 -23 l-148 0 34 133 c19 72 37 140 40 150 5
15 21 17 150 17 79 0 144 -3 144 -7z m410 -14 l34 -21 -29 -24 c-18 -15 -36
-21 -45 -17 -8 4 -43 9 -78 11 -60 4 -64 2 -97 -31 -66 -66 -40 -137 51 -137
55 0 74 8 74 31 0 15 -7 19 -31 19 -28 0 -31 3 -25 23 3 12 6 25 6 30 0 4 36
7 81 7 61 0 80 -3 77 -12 -3 -7 -13 -43 -23 -79 l-17 -67 -56 -11 c-105 -21
-189 -10 -238 32 -56 49 -36 164 38 220 48 35 84 45 168 46 60 1 82 -3 110
-20z m437 -2 c64 -34 47 -130 -30 -173 l-38 -21 35 -47 36 -46 -55 0 c-54 0
-54 0 -81 46 -23 40 -30 45 -57 42 -26 -3 -32 -9 -41 -43 -11 -39 -13 -40 -59
-43 -26 -2 -47 1 -47 5 0 9 40 162 66 252 l15 53 112 -4 c78 -3 122 -10 144
-21z m-3817 -74 c19 -46 38 -83 41 -83 4 0 39 38 79 85 l72 85 49 0 c60 0 59
7 16 -165 l-33 -130 -47 -3 c-26 -2 -47 1 -47 5 0 4 9 40 20 78 11 38 20 72
20 75 -1 3 -32 -29 -69 -70 -64 -69 -71 -73 -93 -63 -16 7 -33 31 -48 67 -12
31 -26 56 -29 56 -4 0 -15 -36 -25 -80 l-17 -80 -44 0 c-34 0 -45 4 -45 15 0
36 64 268 78 281 9 9 28 14 51 12 35 -3 37 -5 71 -85z m4287 59 c66 -47 63
-142 -7 -212 -83 -83 -242 -93 -312 -18 -23 25 -28 39 -28 82 0 68 32 115 102
151 47 23 63 26 133 23 64 -2 86 -8 112 -26z"/>
<path d="M12976 6214 c-207 -45 -431 -190 -562 -364 -43 -57 -122 -229 -140
-305 -23 -97 -23 -262 0 -340 135 -454 689 -587 1111 -268 233 176 367 422
367 672 1 370 -251 623 -616 620 -50 0 -122 -7 -160 -15z m236 -119 c110 -23
192 -67 268 -144 112 -114 156 -235 148 -406 -11 -218 -123 -415 -314 -551
-244 -174 -576 -159 -745 34 -147 167 -183 380 -102 606 73 205 258 386 458
449 96 30 181 34 287 12z"/>
<path d="M12685 5648 c-78 -46 -107 -143 -62 -209 48 -72 149 -71 219 2 59 62
63 131 10 190 -39 43 -109 50 -167 17z"/>
<path d="M13270 5549 c-110 -44 -136 -204 -40 -254 115 -60 265 71 216 189
-26 63 -107 92 -176 65z"/>
<path d="M8797 5763 c-3 -5 -19 -59 -37 -122 -26 -93 -29 -115 -18 -123 7 -5
50 -7 95 -5 103 4 124 21 155 120 23 78 17 110 -28 127 -30 12 -161 13 -167 3z"/>
<path d="M6156 5743 c-22 -77 -56 -204 -56 -213 0 -9 27 -11 90 -8 80 3 92 6
114 28 13 14 34 56 45 94 19 63 20 71 6 93 -14 21 -22 23 -105 23 -76 0 -89
-3 -94 -17z"/>
<path d="M5824 4500 c-33 -13 -64 -59 -64 -95 0 -44 26 -65 82 -65 55 0 92 26
108 76 11 32 10 39 -7 63 -22 28 -78 38 -119 21z"/>
<path d="M8916 4479 c-9 -49 -9 -49 45 -49 58 0 89 13 89 38 0 30 -22 42 -76
42 -50 0 -52 -1 -58 -31z"/>
<path d="M9393 4496 c-34 -16 -73 -68 -73 -99 0 -29 45 -67 80 -67 53 0 99 26
115 64 19 46 19 59 -2 84 -24 28 -80 36 -120 18z"/>
</g>
</svg>
